<svg width="148" height="24" viewBox="0 0 148 24" fill="none" xmlns="http://www.w3.org/2000/svg">
<g clip-path="url(#clip0)">
<path d="M17.0555 10.7556L22.8901 0.238832C22.9038 0.214661 22.9111 0.18712 22.9112 0.159037C22.9114 0.130954 22.9043 0.103339 22.8908 0.0790283C22.8773 0.0547173 22.8578 0.0345854 22.8344 0.0206993C22.8109 0.00681312 22.7843 -0.000327112 22.7573 1.15073e-05H19.0299C18.6248 -6.80977e-05 18.2268 0.110761 17.8759 0.321369C17.5249 0.531977 17.2335 0.834951 17.0307 1.19987L10.7648 12.4906C10.7538 12.5108 10.7473 12.5333 10.7456 12.5564C10.744 12.5795 10.7472 12.6028 10.7551 12.6245C10.763 12.6462 10.7754 12.6658 10.7914 12.6819C10.8074 12.6981 10.8267 12.7104 10.8477 12.7179C12.2806 13.2605 13.5962 14.0925 14.719 15.166C15.8418 16.2396 16.7496 17.5334 17.3901 18.9733C17.4008 18.9978 17.4053 19.0247 17.4034 19.0515C17.4014 19.0784 17.3931 19.1042 17.379 19.1268C17.365 19.1494 17.3458 19.168 17.3231 19.1809C17.3004 19.1938 17.275 19.2006 17.2491 19.2006H4.76715C4.72655 19.2006 4.68758 19.184 4.65862 19.1544C4.62966 19.1248 4.61302 19.0846 4.6123 19.0423V4.96057C4.6123 4.91783 4.62861 4.87685 4.65765 4.84663C4.68669 4.81641 4.72608 4.79944 4.76715 4.79944H11.0358C11.4409 4.79981 11.839 4.6891 12.19 4.47847C12.541 4.26783 12.8324 3.96469 13.035 3.59958L14.9015 0.238832C14.9145 0.21431 14.9211 0.186696 14.9207 0.15871C14.9202 0.130724 14.9128 0.10333 14.8992 0.0792271C14.8855 0.0551243 14.866 0.0351437 14.8427 0.0212534C14.8193 0.00736306 14.7929 4.20799e-05 14.766 1.15073e-05H0.154849C0.113781 1.15073e-05 0.0743942 0.0169878 0.0453543 0.0472059C0.0163144 0.077424 0 0.118408 0 0.161143L0 23.8418C0.000724892 23.884 0.0173588 23.9242 0.0463205 23.9538C0.0752822 23.9834 0.114255 24 0.154849 24H22.9094C22.9505 24 22.9899 23.983 23.0189 23.9528C23.0479 23.9226 23.0643 23.8816 23.0643 23.8389C23.0436 21.3662 22.4973 18.9288 21.4647 16.7017C20.4321 14.4745 18.9386 12.5127 17.0915 10.957C17.0635 10.9333 17.0446 10.9 17.038 10.8631C17.0314 10.8262 17.0376 10.7881 17.0555 10.7556Z" fill="#96D700"/>
<path d="M104.947 12.8019C104.947 10.3821 103.067 8.54631 100.744 8.39957C99.2049 8.34904 97.6941 8.83628 96.4523 9.78357C96.4201 9.80642 96.3976 9.84124 96.3894 9.88085C96.3811 9.92047 96.3878 9.96186 96.4081 9.9965L96.845 10.782C96.9194 10.9174 97.0416 11.0173 97.1857 11.0603C97.3298 11.1033 97.4844 11.086 97.6164 11.0122C98.5655 10.4398 99.6504 10.1576 100.747 10.1979C101.348 10.2225 101.918 10.4841 102.341 10.9297C102.764 11.3752 103.009 11.9715 103.025 12.5976V13.2364C103.024 13.2786 103.008 13.3189 102.979 13.3485C102.95 13.3781 102.911 13.3947 102.87 13.3946H99.0433C98.1799 13.3898 97.349 13.7371 96.7288 14.3621C96.1085 14.9871 95.7482 15.84 95.7251 16.7381C95.6947 18.6429 97.174 20.0356 98.9907 20.191C100.462 20.3204 101.756 19.7737 102.892 19.04C102.91 19.0286 102.929 19.0209 102.95 19.0175C102.97 19.014 102.991 19.0149 103.011 19.02C103.031 19.0251 103.05 19.0343 103.067 19.0471C103.084 19.06 103.098 19.0761 103.108 19.0947L103.432 19.6702C103.484 19.7587 103.557 19.8318 103.644 19.8822C103.731 19.9327 103.83 19.9587 103.929 19.9579H104.8C104.841 19.9579 104.879 19.9412 104.908 19.9115C104.936 19.8819 104.952 19.8416 104.952 19.7996L104.947 12.8019ZM102.621 17.515C101.728 18.1826 100.661 18.6832 99.4525 18.5998C98.4819 18.5336 97.6441 17.8171 97.6441 16.8043C97.6434 16.5677 97.6875 16.3332 97.7741 16.1143C97.8606 15.8955 97.9878 15.6966 98.1483 15.529C98.3089 15.3614 98.4996 15.2284 98.7097 15.1376C98.9197 15.0469 99.1449 15.0002 99.3723 15.0002H102.865C102.885 15.0002 102.905 15.0044 102.924 15.0125C102.943 15.0206 102.96 15.0324 102.974 15.0474C102.989 15.0624 103 15.0801 103.008 15.0997C103.016 15.1192 103.02 15.1402 103.02 15.1613V16.6892C103.021 16.8499 102.986 17.0088 102.917 17.1524C102.848 17.2961 102.746 17.4204 102.621 17.515Z" fill="#5C0091"/>
<path d="M125.32 12.8023C125.32 10.3825 123.44 8.54674 121.117 8.39999C119.578 8.34991 118.067 8.83711 116.825 9.784C116.793 9.80684 116.771 9.84166 116.762 9.88128C116.754 9.9209 116.761 9.96229 116.781 9.99692L117.218 10.7824C117.293 10.9181 117.416 11.018 117.56 11.0609C117.705 11.1039 117.86 11.0866 117.992 11.0126C118.939 10.4415 120.021 10.1603 121.114 10.2012C121.716 10.2258 122.286 10.4874 122.709 10.933C123.132 11.3785 123.376 11.9748 123.393 12.6009V13.2368C123.393 13.2788 123.377 13.319 123.348 13.3487C123.32 13.3784 123.281 13.3951 123.241 13.3951H119.416C118.554 13.3946 117.726 13.7434 117.106 14.3674C116.487 14.9915 116.125 15.8419 116.098 16.7386C116.068 18.6434 117.547 20.036 119.364 20.1914C120.835 20.3209 122.129 19.7742 123.265 19.0404C123.283 19.029 123.303 19.0213 123.323 19.0179C123.343 19.0144 123.364 19.0153 123.384 19.0204C123.404 19.0255 123.423 19.0347 123.44 19.0476C123.457 19.0604 123.471 19.0766 123.481 19.0951L123.805 19.6706C123.857 19.7592 123.93 19.8322 124.017 19.8827C124.104 19.9331 124.203 19.9591 124.302 19.9583H125.171C125.211 19.9583 125.25 19.9416 125.278 19.912C125.307 19.8823 125.323 19.842 125.323 19.8001L125.32 12.8023ZM122.994 17.5154C122.101 18.183 121.037 18.6836 119.826 18.6002C118.855 18.534 118.017 17.8176 118.017 16.8047C118.017 16.5682 118.061 16.3339 118.148 16.1152C118.235 15.8965 118.362 15.6978 118.522 15.5302C118.683 15.3627 118.873 15.2297 119.083 15.1388C119.293 15.048 119.518 15.001 119.745 15.0006H123.246C123.287 15.0014 123.325 15.0187 123.354 15.0488C123.382 15.079 123.398 15.1195 123.398 15.1618V16.6896C123.399 16.8509 123.363 17.01 123.293 17.1537C123.223 17.2974 123.12 17.4215 122.994 17.5154Z" fill="#5C0091"/>
<path d="M134.739 9.2082V13.2365C134.739 13.2785 134.723 13.3187 134.694 13.3484C134.666 13.3781 134.627 13.3947 134.586 13.3947H129.319C129.278 13.3948 129.239 13.3782 129.21 13.3486C129.181 13.319 129.165 13.2787 129.164 13.2365V8.75933C129.164 8.71736 129.148 8.6771 129.119 8.64743C129.091 8.61775 129.052 8.60107 129.012 8.60107H127.397C127.356 8.60107 127.317 8.61765 127.289 8.64725C127.26 8.67685 127.243 8.71709 127.242 8.75933V19.8544C127.243 19.8966 127.26 19.9369 127.289 19.9665C127.317 19.9961 127.356 20.0127 127.397 20.0127H128.581C128.656 20.0127 128.731 19.9971 128.801 19.9668C128.871 19.9366 128.935 19.8922 128.988 19.8363C129.042 19.7805 129.084 19.7142 129.113 19.6412C129.141 19.5683 129.156 19.4901 129.156 19.4113V15.1614C129.156 15.1403 129.16 15.1193 129.167 15.0998C129.175 15.0802 129.187 15.0625 129.201 15.0475C129.215 15.0325 129.232 15.0207 129.251 15.0126C129.27 15.0045 129.29 15.0003 129.311 15.0003H134.578C134.619 15.0011 134.657 15.0184 134.686 15.0485C134.714 15.0786 134.73 15.1192 134.73 15.1614V19.8544C134.731 19.8966 134.748 19.9369 134.777 19.9665C134.806 19.9961 134.845 20.0127 134.885 20.0127H136.5C136.54 20.0127 136.579 19.996 136.608 19.9663C136.636 19.9366 136.652 19.8964 136.652 19.8544V8.75933C136.652 8.71736 136.636 8.6771 136.608 8.64743C136.579 8.61775 136.54 8.60107 136.5 8.60107H135.308C135.155 8.60335 135.01 8.6685 134.903 8.78228C134.796 8.89605 134.737 9.04919 134.739 9.2082Z" fill="#5C0091"/>
<path d="M90.187 12.128C90.1676 12.1134 90.1518 12.0941 90.1409 12.0718C90.13 12.0496 90.1243 12.025 90.1243 12C90.1243 11.975 90.13 11.9504 90.1409 11.9281C90.1518 11.9059 90.1676 11.8866 90.187 11.8719C90.8517 11.3763 91.407 10.7386 91.8157 10.0017L95.0123 4.24696C95.026 4.22279 95.0333 4.19525 95.0334 4.16717C95.0336 4.13909 95.0265 4.11147 95.013 4.08716C94.9995 4.06285 94.98 4.04272 94.9566 4.02883C94.9331 4.01495 94.9065 4.00781 94.8795 4.00814H93.3697C93.1678 4.00777 92.9693 4.06259 92.7941 4.16712C92.6189 4.27165 92.4732 4.42221 92.3715 4.60376L89.3741 9.99879C89.2062 10.3025 88.9646 10.5548 88.6734 10.7306C88.3821 10.9064 88.0516 10.9993 87.715 11.0001H86.078C86.0374 11.0001 85.9984 10.9835 85.9695 10.9539C85.9405 10.9243 85.9239 10.8841 85.9231 10.8419V4.16064C85.9235 4.13962 85.9198 4.11873 85.9124 4.0992C85.9049 4.07966 85.8937 4.06188 85.8796 4.04688C85.8654 4.03187 85.8485 4.01996 85.8299 4.01183C85.8113 4.00369 85.7913 3.99951 85.7711 3.99951H83.9626C83.922 4.00027 83.8834 4.01757 83.8549 4.04771C83.8265 4.07785 83.8105 4.1184 83.8105 4.16064V19.8537C83.8105 19.8957 83.8266 19.936 83.8551 19.9656C83.8836 19.9953 83.9223 20.012 83.9626 20.012H85.3452C85.4978 20.012 85.6441 19.9489 85.7519 19.8367C85.8598 19.7245 85.9204 19.5722 85.9204 19.4135V13.161C85.9204 13.1398 85.9244 13.1189 85.9322 13.0993C85.9399 13.0798 85.9514 13.062 85.9657 13.0471C85.9801 13.0321 85.9972 13.0202 86.016 13.0121C86.0348 13.004 86.0549 12.9999 86.0752 12.9999H87.7122C88.0485 13.0024 88.3784 13.0961 88.6693 13.2717C88.9603 13.4473 89.2022 13.6987 89.3713 14.0012L92.3688 19.402C92.4699 19.5843 92.6154 19.7356 92.7907 19.8406C92.9659 19.9457 93.1647 20.0008 93.367 20.0005H94.8768C94.9037 20.0008 94.9303 19.9937 94.9538 19.9798C94.9773 19.9659 94.9967 19.9458 95.0102 19.9215C95.0238 19.8971 95.0308 19.8695 95.0307 19.8414C95.0305 19.8134 95.0232 19.7858 95.0095 19.7617L91.8047 14.0012C91.4 13.2639 90.8484 12.6252 90.187 12.128Z" fill="#5C0091"/>
<path d="M113.349 14.2631C113.327 14.2492 113.309 14.2297 113.297 14.2065C113.285 14.1834 113.278 14.1573 113.278 14.1307C113.278 14.1042 113.285 14.0781 113.297 14.0549C113.309 14.0317 113.327 14.0123 113.349 13.9984C113.699 13.7444 113.984 13.4059 114.181 13.012C114.377 12.6181 114.479 12.1805 114.477 11.7368C114.477 9.89525 113.039 8.48823 111.27 8.39903C109.74 8.36211 108.238 8.82281 106.973 9.71686C106.94 9.73873 106.917 9.77284 106.908 9.81201C106.9 9.85118 106.906 9.89237 106.926 9.9269L107.34 10.6779C107.413 10.8087 107.53 10.9059 107.669 10.9498C107.808 10.9936 107.957 10.9808 108.087 10.9138C108.966 10.4448 110.023 10.0823 111.01 10.1657C111.839 10.2377 112.578 10.8361 112.589 11.7137C112.592 11.9218 112.555 12.1285 112.481 12.3218C112.407 12.5151 112.297 12.691 112.156 12.8394C112.016 12.9877 111.849 13.1056 111.664 13.186C111.48 13.2664 111.282 13.3078 111.082 13.3078H109.345C109.306 13.3078 109.268 13.3242 109.24 13.3533C109.212 13.3824 109.196 13.422 109.196 13.4632V14.289C109.196 14.3658 109.211 14.4418 109.239 14.5126C109.268 14.5833 109.31 14.6474 109.363 14.7011C109.416 14.7547 109.478 14.7968 109.547 14.8248C109.616 14.8529 109.689 14.8664 109.763 14.8644H111.043C111.273 14.8629 111.501 14.9091 111.714 15.0004C111.927 15.0916 112.12 15.2261 112.282 15.396C112.444 15.5659 112.572 15.7677 112.659 15.9896C112.745 16.2116 112.788 16.4492 112.785 16.6887C112.766 17.6497 112.008 18.323 111.087 18.4151C109.818 18.5503 108.494 18.0957 107.371 17.526C107.336 17.5082 107.296 17.5049 107.259 17.5166C107.222 17.5284 107.191 17.5544 107.172 17.5893L106.494 18.8064C106.484 18.8252 106.478 18.846 106.476 18.8674C106.473 18.8888 106.475 18.9105 106.481 18.9312C106.487 18.9518 106.497 18.9711 106.51 18.9877C106.523 19.0043 106.54 19.018 106.558 19.028C107.976 19.7674 109.619 20.3026 111.275 20.1789C113.147 20.0437 114.671 18.5964 114.671 16.6455C114.672 16.1625 114.55 15.6879 114.318 15.2696C114.085 14.8513 113.751 14.5041 113.349 14.2631Z" fill="#5C0091"/>
<path d="M54.0117 12.8023C54.0117 10.3824 52.1286 8.54665 49.8086 8.3999C48.269 8.3505 46.7576 8.83761 45.5143 9.78391C45.4837 9.808 45.4623 9.84275 45.4542 9.88182C45.4461 9.9209 45.4517 9.96171 45.4701 9.99683L45.9014 10.7852C45.9769 10.9203 46.0996 11.0197 46.244 11.0626C46.3884 11.1056 46.5431 11.0886 46.6757 11.0154C47.6246 10.4426 48.7096 10.1604 49.8059 10.2011C50.4069 10.2264 50.9762 10.4883 51.3987 10.9338C51.8212 11.3793 52.0653 11.9752 52.0816 12.6008V13.2367C52.0816 13.2787 52.0656 13.319 52.0371 13.3486C52.0085 13.3783 51.9698 13.395 51.9295 13.395H48.1136C47.2514 13.3945 46.423 13.7433 45.8036 14.3673C45.1843 14.9914 44.8227 15.8418 44.7954 16.7385C44.765 18.6433 46.2471 20.0359 48.0638 20.1913C49.5321 20.3208 50.829 19.7741 51.9655 19.0404C51.9828 19.029 52.0021 19.0213 52.0223 19.0179C52.0426 19.0145 52.0632 19.0154 52.0831 19.0205C52.103 19.0256 52.1217 19.0348 52.138 19.0477C52.1544 19.0605 52.1681 19.0766 52.1784 19.095L52.5019 19.6705C52.5544 19.7593 52.6281 19.8325 52.7158 19.8829C52.8035 19.9333 52.9022 19.9593 53.0024 19.9582H53.8679C53.9085 19.9582 53.9475 19.9417 53.9764 19.9121C54.0054 19.8825 54.022 19.8422 54.0227 19.8L54.0117 12.8023ZM51.6862 17.5154C50.7903 18.1829 49.7257 18.6836 48.5173 18.6001C47.544 18.5339 46.7089 17.8175 46.7061 16.8047C46.7061 16.3267 46.8884 15.8682 47.2129 15.53C47.5375 15.1917 47.9778 15.0013 48.4371 15.0006H51.935C51.9553 15.0005 51.9753 15.0047 51.9939 15.0129C52.0125 15.021 52.0294 15.0329 52.0436 15.0479C52.0577 15.0629 52.0689 15.0807 52.0764 15.1002C52.0838 15.1198 52.0875 15.1407 52.0871 15.1617V16.6896C52.0881 16.8504 52.0523 17.0093 51.9826 17.1529C51.9128 17.2965 51.8112 17.4207 51.6862 17.5154Z" fill="#5C0091"/>
<path d="M63.43 9.2082V13.2365C63.4292 13.2787 63.4126 13.319 63.3837 13.3486C63.3547 13.3782 63.3157 13.3947 63.2751 13.3947H58.0075C57.9875 13.3947 57.9677 13.3906 57.9493 13.3827C57.9308 13.3747 57.9141 13.3631 57.8999 13.3484C57.8858 13.3337 57.8746 13.3163 57.867 13.297C57.8593 13.2778 57.8554 13.2573 57.8554 13.2365V8.75933C57.8554 8.71736 57.8394 8.6771 57.8108 8.64743C57.7823 8.61775 57.7436 8.60107 57.7033 8.60107H56.0857C56.0453 8.60107 56.0067 8.61775 55.9781 8.64743C55.9496 8.6771 55.9336 8.71736 55.9336 8.75933V19.8544C55.9336 19.8964 55.9496 19.9366 55.9781 19.9663C56.0067 19.996 56.0453 20.0127 56.0857 20.0127H57.2775C57.3532 20.013 57.4283 19.9978 57.4984 19.9679C57.5685 19.938 57.6323 19.894 57.686 19.8384C57.7397 19.7828 57.7823 19.7167 57.8113 19.6439C57.8404 19.5711 57.8554 19.493 57.8554 19.4142V15.1614C57.8554 15.1192 57.8713 15.0786 57.8998 15.0485C57.9282 15.0184 57.9669 15.0011 58.0075 15.0003H63.2751C63.2955 15.0003 63.3156 15.0045 63.3344 15.0126C63.3532 15.0207 63.3702 15.0325 63.3846 15.0475C63.399 15.0625 63.4104 15.0802 63.4182 15.0998C63.426 15.1193 63.43 15.1403 63.43 15.1614V19.8544C63.43 19.8964 63.446 19.9366 63.4745 19.9663C63.503 19.996 63.5417 20.0127 63.5821 20.0127H65.1969C65.2375 20.0127 65.2765 19.9961 65.3054 19.9665C65.3344 19.9369 65.351 19.8966 65.3518 19.8544V8.75933C65.351 8.71709 65.3344 8.67685 65.3054 8.64725C65.2765 8.61765 65.2375 8.60107 65.1969 8.60107H64.0051C63.9289 8.60107 63.8534 8.61683 63.7831 8.64744C63.7128 8.67806 63.649 8.72292 63.5955 8.77941C63.542 8.8359 63.4998 8.9029 63.4714 8.97651C63.4429 9.05012 63.4289 9.12888 63.43 9.2082Z" fill="#5C0091"/>
<path d="M72.8906 14.3702C72.8707 14.3556 72.8544 14.3362 72.8431 14.3137C72.8319 14.2911 72.826 14.2661 72.826 14.2407C72.826 14.2153 72.8319 14.1903 72.8431 14.1677C72.8544 14.1452 72.8707 14.1258 72.8906 14.1112C73.4743 13.6918 73.9608 13.1424 74.3147 12.5028L76.3471 8.83991C76.3608 8.81574 76.3682 8.78819 76.3683 8.76011C76.3684 8.73203 76.3614 8.70441 76.3479 8.6801C76.3343 8.65579 76.3149 8.63566 76.2914 8.62177C76.2679 8.60789 76.2414 8.60075 76.2144 8.60109H74.8152C74.6469 8.60149 74.4816 8.64796 74.336 8.73584C74.1904 8.82372 74.0696 8.94991 73.9856 9.10174L71.8786 12.8999C71.7944 13.0515 71.6736 13.1775 71.528 13.2654C71.3824 13.3532 71.2173 13.3998 71.049 13.4005H69.3512C69.3109 13.4005 69.2722 13.3838 69.2437 13.3542C69.2152 13.3245 69.1991 13.2842 69.1991 13.2423V8.75934C69.1984 8.71711 69.1818 8.67686 69.1528 8.64726C69.1239 8.61766 69.0849 8.60108 69.0443 8.60109H67.4294C67.3891 8.60109 67.3504 8.61776 67.3219 8.64744C67.2934 8.67712 67.2773 8.71737 67.2773 8.75934V19.8544C67.2773 19.8964 67.2934 19.9366 67.3219 19.9663C67.3504 19.996 67.3891 20.0127 67.4294 20.0127H68.6212C68.7745 20.0127 68.9215 19.9493 69.0299 19.8365C69.1382 19.7237 69.1991 19.5708 69.1991 19.4113V15.1614C69.1991 15.1192 69.2151 15.0787 69.2435 15.0485C69.2719 15.0184 69.3106 15.0011 69.3512 15.0003H70.9357C71.1039 15.001 71.2691 15.0476 71.4146 15.1355C71.5602 15.2233 71.6811 15.3493 71.7652 15.501L73.9773 19.5005C74.0613 19.6523 74.1821 19.7785 74.3277 19.8664C74.4733 19.9543 74.6386 20.0008 74.8069 20.0012H76.2061C76.2331 20.0015 76.2596 19.9944 76.2831 19.9805C76.3066 19.9666 76.326 19.9464 76.3396 19.9221C76.3531 19.8978 76.3601 19.8702 76.36 19.8421C76.3599 19.814 76.3525 19.7865 76.3388 19.7623L74.1958 15.9009C73.8675 15.302 73.423 14.7807 72.8906 14.3702Z" fill="#5C0091"/>
<path d="M39.0025 10.5998H34.9432C34.9026 10.5998 34.8637 10.5833 34.8347 10.5537C34.8057 10.5241 34.7891 10.4838 34.7884 10.4416V6.16007C34.7884 6.11734 34.8047 6.07635 34.8337 6.04614C34.8628 6.01592 34.9021 5.99894 34.9432 5.99894H40.3187C40.5209 5.99902 40.7196 5.94376 40.8948 5.83872C41.07 5.73367 41.2156 5.58253 41.3169 5.40045L41.9612 4.24951C41.9747 4.22512 41.9819 4.19746 41.982 4.1693C41.982 4.14114 41.975 4.11345 41.9616 4.08899C41.9481 4.06454 41.9288 4.04418 41.9054 4.02993C41.8821 4.01569 41.8555 4.00806 41.8285 4.00781H32.8279C32.7873 4.00857 32.7486 4.02588 32.7202 4.05601C32.6917 4.08615 32.6758 4.1267 32.6758 4.16894V19.8534C32.6758 19.8954 32.6918 19.9356 32.7203 19.9653C32.7488 19.995 32.7875 20.0117 32.8279 20.0117H39.0688C39.6711 20.0219 40.2692 19.9067 40.8281 19.6728C41.3869 19.439 41.8952 19.0912 42.323 18.65C42.7508 18.2088 43.0895 17.683 43.3192 17.1036C43.5489 16.5242 43.665 15.9029 43.6605 15.2761C43.6561 14.6494 43.5313 14.0299 43.2935 13.4541C43.0556 12.8782 42.7095 12.3577 42.2755 11.9231C41.8415 11.4885 41.3284 11.1485 40.7663 10.9232C40.2042 10.698 39.6045 10.5919 39.0025 10.6113V10.5998ZM38.8255 18.0004H34.9543C34.9137 18.0004 34.8747 17.9838 34.8457 17.9542C34.8168 17.9246 34.8002 17.8844 34.7994 17.8421V12.7578C34.8002 12.7156 34.8168 12.6754 34.8457 12.6458C34.8747 12.6162 34.9137 12.5996 34.9543 12.5996H38.878C39.5588 12.598 40.2129 12.8749 40.6992 13.3707C41.1855 13.8665 41.465 14.5413 41.4773 15.2496C41.478 15.6118 41.4099 15.9706 41.2768 16.3052C41.1437 16.6398 40.9482 16.9438 40.7017 17.1995C40.4552 17.4552 40.1626 17.6576 39.8405 17.795C39.5185 17.9325 39.1736 18.0023 38.8255 18.0004Z" fill="#5C0091"/>
<path d="M145.235 9.2082L140.648 17.4662C140.64 17.4821 140.627 17.4948 140.611 17.502C140.596 17.5092 140.578 17.5106 140.561 17.5058C140.545 17.5011 140.53 17.4906 140.52 17.476C140.51 17.4615 140.505 17.4438 140.507 17.4259V8.76221C140.507 8.71947 140.49 8.67849 140.461 8.64827C140.432 8.61805 140.393 8.60107 140.352 8.60107H138.737C138.696 8.60107 138.656 8.61805 138.627 8.64827C138.598 8.67849 138.582 8.71947 138.582 8.76221V19.8544C138.582 19.8971 138.598 19.9381 138.627 19.9683C138.656 19.9986 138.696 20.0155 138.737 20.0155H140.352C140.554 20.0159 140.753 19.9608 140.928 19.8557C141.103 19.7506 141.249 19.5993 141.35 19.417L145.935 11.136C145.943 11.121 145.956 11.1093 145.972 11.1028C145.988 11.0962 146.005 11.0952 146.021 11.0997C146.037 11.1043 146.052 11.1142 146.062 11.128C146.072 11.1418 146.078 11.1588 146.078 11.1763V19.8544C146.078 19.8971 146.095 19.9381 146.124 19.9683C146.153 19.9986 146.192 20.0155 146.233 20.0155H147.848C147.868 20.0155 147.888 20.0114 147.907 20.0032C147.926 19.9951 147.942 19.9832 147.957 19.9682C147.971 19.9532 147.982 19.9354 147.989 19.9158C147.997 19.8963 148.001 19.8754 148 19.8544V8.76221C148.001 8.74118 147.997 8.72029 147.989 8.70076C147.982 8.68123 147.971 8.66344 147.957 8.64844C147.942 8.63344 147.926 8.62152 147.907 8.61339C147.888 8.60526 147.868 8.60107 147.848 8.60107H146.233C146.03 8.60128 145.831 8.65759 145.655 8.76425C145.48 8.87092 145.335 9.02412 145.235 9.2082Z" fill="#5C0091"/>
</g>
<defs>
<clipPath id="clip0">
<rect width="148" height="24" fill="white"/>
</clipPath>
</defs>
</svg>
