<svg width="26" height="26" viewBox="0 0 26 26" fill="none" xmlns="http://www.w3.org/2000/svg">
<path d="M18.5144 11.6518L24.8479 0.258734C24.8628 0.232549 24.8708 0.202714 24.8709 0.17229C24.8711 0.141867 24.8634 0.111951 24.8488 0.0856139C24.8341 0.059277 24.8129 0.0374675 24.7875 0.0224242C24.762 0.00738087 24.7331 -0.000354371 24.7038 1.24662e-05H20.6576C20.2178 -7.37725e-05 19.7858 0.119991 19.4049 0.348149C19.0239 0.576308 18.7075 0.90453 18.4874 1.29986L11.6856 13.5315C11.6737 13.5534 11.6666 13.5777 11.6648 13.6028C11.6629 13.6278 11.6665 13.653 11.675 13.6765C11.6836 13.7 11.6971 13.7212 11.7145 13.7387C11.7319 13.7562 11.7527 13.7695 11.7756 13.7777C13.331 14.3656 14.7592 15.2669 15.978 16.4299C17.1968 17.5928 18.1822 18.9945 18.8776 20.5544C18.8891 20.5809 18.894 20.6101 18.8919 20.6391C18.8898 20.6682 18.8808 20.6963 18.8655 20.7207C18.8503 20.7452 18.8294 20.7654 18.8048 20.7793C18.7802 20.7933 18.7526 20.8006 18.7245 20.8006H5.1749C5.13084 20.8006 5.08853 20.7827 5.05709 20.7506C5.02565 20.7185 5.00759 20.6749 5.00681 20.6292V5.37395C5.00681 5.32765 5.02452 5.28325 5.05604 5.25051C5.08756 5.21778 5.13032 5.19939 5.1749 5.19939H11.9797C12.4195 5.19979 12.8517 5.07986 13.2327 4.85167C13.6137 4.62348 13.93 4.29508 14.1499 3.89954L16.1761 0.258734C16.1901 0.232169 16.1973 0.202254 16.1969 0.171936C16.1964 0.141617 16.1884 0.111941 16.1736 0.0858293C16.1587 0.0597179 16.1376 0.0380723 16.1122 0.0230245C16.0869 0.00797665 16.0582 4.55865e-05 16.029 1.24662e-05H0.168094C0.123513 1.24662e-05 0.0807574 0.0184035 0.0492337 0.0511397C0.0177099 0.0838759 0 0.128276 0 0.174572L0 25.8286C0.000786895 25.8743 0.0188436 25.9179 0.0502825 25.95C0.0817214 25.982 0.124028 26 0.168094 26H24.8689C24.9135 26 24.9563 25.9816 24.9878 25.9489C25.0193 25.9161 25.037 25.8717 25.037 25.8254C25.0146 23.1467 24.4216 20.5062 23.3007 18.0935C22.1797 15.6807 20.5585 13.5555 18.5534 11.87C18.523 11.8444 18.5025 11.8084 18.4953 11.7684C18.4882 11.7284 18.4949 11.6871 18.5144 11.6518Z" fill="#551665"/>
</svg>
