<svg width="122" height="17" viewBox="0 0 122 17" fill="none" xmlns="http://www.w3.org/2000/svg">
<path d="M12.05 6.18411L7.77697 0H9.65204L13.0236 4.88599L16.4311 0H18.2341L13.9791 6.14805L18.4144 12.6206H16.5032L12.9875 7.42815L9.43569 12.6206H7.59668L12.05 6.18411Z" fill="#304659"/>
<path d="M24.1951 12.8009C23.5821 12.8009 22.9991 12.7048 22.4462 12.5125C21.8933 12.3081 21.4065 12.0076 20.9858 11.611C20.5651 11.2023 20.2286 10.6915 19.9762 10.0785C19.7238 9.46548 19.5976 8.75031 19.5976 7.93297V7.57238C19.5976 6.80312 19.7238 6.12401 19.9762 5.53505C20.2286 4.94609 20.5651 4.45929 20.9858 4.07466C21.4065 3.67801 21.8933 3.38353 22.4462 3.19122C22.9991 2.98688 23.5821 2.88472 24.1951 2.88472C24.8081 2.88472 25.391 2.98688 25.9439 3.19122C26.4968 3.38353 26.9836 3.67801 27.4043 4.07466C27.825 4.45929 28.1616 4.94609 28.414 5.53505C28.6664 6.12401 28.7926 6.80312 28.7926 7.57238V7.93297C28.7926 8.75031 28.6664 9.46548 28.414 10.0785C28.1616 10.6915 27.825 11.2023 27.4043 11.611C26.9836 12.0076 26.4968 12.3081 25.9439 12.5125C25.391 12.7048 24.8081 12.8009 24.1951 12.8009ZM24.1951 11.3586C24.5557 11.3586 24.9163 11.2985 25.2768 11.1783C25.6374 11.0461 25.9559 10.8477 26.2324 10.5833C26.5089 10.3069 26.7312 9.95227 26.8995 9.51957C27.0798 9.08686 27.1699 8.55799 27.1699 7.93297V7.57238C27.1699 6.99544 27.0798 6.50263 26.8995 6.09397C26.7312 5.6853 26.5089 5.34875 26.2324 5.08431C25.9559 4.81988 25.6374 4.62757 25.2768 4.50737C24.9163 4.38717 24.5557 4.32708 24.1951 4.32708C23.8345 4.32708 23.4739 4.38717 23.1133 4.50737C22.7527 4.62757 22.4342 4.81988 22.1577 5.08431C21.8813 5.34875 21.6529 5.6853 21.4726 6.09397C21.3043 6.50263 21.2202 6.99544 21.2202 7.57238V7.93297C21.2202 8.55799 21.3043 9.08686 21.4726 9.51957C21.6529 9.95227 21.8813 10.3069 22.1577 10.5833C22.4342 10.8477 22.7527 11.0461 23.1133 11.1783C23.4739 11.2985 23.8345 11.3586 24.1951 11.3586Z" fill="#304659"/>
<path d="M36.7546 8.81642C36.4781 8.98469 36.1416 9.13494 35.7449 9.26715C35.3603 9.39937 34.8735 9.46548 34.2845 9.46548C33.7316 9.46548 33.2328 9.40538 32.7881 9.28518C32.3554 9.16499 31.9888 8.97267 31.6883 8.70824C31.3878 8.44381 31.1594 8.10125 31.0032 7.68056C30.8469 7.25987 30.7688 6.74303 30.7688 6.13002V3.06501H32.3554V5.85958C32.3554 6.26825 32.3914 6.61081 32.4636 6.88726C32.5477 7.16371 32.6799 7.38608 32.8602 7.55435C33.0405 7.72263 33.2689 7.84282 33.5453 7.91494C33.8218 7.98706 34.1583 8.02312 34.555 8.02312C35.0959 8.02312 35.5586 7.96903 35.9432 7.86085C36.3279 7.75268 36.5983 7.63849 36.7546 7.51829V3.06501H38.3412V12.6206H36.7546V8.81642Z" fill="#304659"/>
<path d="M42.6626 16.4068C42.4823 16.4068 42.302 16.3888 42.1217 16.3527V14.9104C42.302 14.9464 42.4823 14.9645 42.6626 14.9645C42.8429 14.9645 42.9992 14.9344 43.1314 14.8743C43.2636 14.8142 43.3898 14.7 43.51 14.5318C43.6302 14.3635 43.7564 14.1231 43.8886 13.8106C44.0329 13.5101 44.1951 13.1134 44.3754 12.6206L40.3188 3.06501H42.0857L45.1867 10.8177L47.9993 3.06501H49.6941L46.0882 12.6206C45.8358 13.2937 45.5954 13.8707 45.367 14.3515C45.1387 14.8323 44.8923 15.2229 44.6278 15.5234C44.3754 15.8359 44.0929 16.0583 43.7804 16.1905C43.4679 16.3347 43.0953 16.4068 42.6626 16.4068Z" fill="#304659"/>
<path d="M56.177 0H59.4223V4.99417H60.3238L64.1821 0H67.7158L62.8479 5.89564L67.8961 12.6206H64.11L60.3238 7.26588H59.4223V12.6206H56.177V0Z" fill="#304659"/>
<path d="M69.2547 3.06501H71.8149V4.36313C71.9351 4.17082 72.0853 3.98452 72.2656 3.80422C72.4579 3.61191 72.6803 3.44363 72.9327 3.2994C73.1851 3.15516 73.4676 3.04097 73.7801 2.95684C74.0926 2.8727 74.4292 2.83063 74.7897 2.83063C76.1359 2.83063 77.1576 3.22728 77.8548 4.02058C78.5519 4.81387 78.9005 5.99781 78.9005 7.57238V7.93297C78.9005 8.75031 78.8043 9.46548 78.612 10.0785C78.4197 10.6915 78.1432 11.2023 77.7826 11.611C77.422 12.0197 76.9893 12.3322 76.4845 12.5485C75.9797 12.7529 75.4148 12.855 74.7897 12.855C74.2489 12.855 73.732 12.7348 73.2392 12.4944C72.7584 12.242 72.3558 11.8814 72.0312 11.4127V16.2265H69.2547V3.06501ZM74.1226 10.5653C74.6756 10.5653 75.1323 10.3429 75.4929 9.89819C75.8655 9.45346 76.0518 8.79839 76.0518 7.93297V7.57238C76.0518 6.74303 75.8715 6.13002 75.5109 5.73338C75.1623 5.32471 74.6996 5.12037 74.1226 5.12037C73.5337 5.12037 73.0349 5.30668 72.6262 5.67929C72.2296 6.03988 72.0312 6.58076 72.0312 7.30194V8.20341C72.0312 8.96065 72.2296 9.54361 72.6262 9.95227C73.0349 10.3609 73.5337 10.5653 74.1226 10.5653Z" fill="#304659"/>
<path d="M85.1249 12.855C84.4277 12.855 83.7726 12.7589 83.1596 12.5666C82.5587 12.3622 82.0358 12.0557 81.5911 11.647C81.1464 11.2384 80.7978 10.7275 80.5454 10.1145C80.293 9.48952 80.1667 8.76233 80.1667 7.93297V7.57238C80.1667 6.77909 80.2869 6.08796 80.5273 5.49899C80.7798 4.91003 81.1163 4.41722 81.537 4.02058C81.9697 3.62393 82.4745 3.32944 83.0515 3.13713C83.6404 2.9328 84.2715 2.83063 84.9446 2.83063C86.5191 2.83063 87.7091 3.2393 88.5144 4.05663C89.3197 4.86195 89.7224 6.03387 89.7224 7.57238V8.564H83.0154C83.0274 8.93661 83.0935 9.25513 83.2137 9.51957C83.3339 9.77198 83.4902 9.98232 83.6825 10.1506C83.8748 10.3189 84.0912 10.4451 84.3316 10.5292C84.584 10.6013 84.8484 10.6374 85.1249 10.6374C85.6537 10.6374 86.0684 10.5593 86.3689 10.403C86.6814 10.2347 86.8857 10.0124 86.9819 9.73592H89.5421C89.3498 10.7816 88.875 11.5629 88.1178 12.0798C87.3605 12.5966 86.3629 12.855 85.1249 12.855ZM85.0347 5.03023C84.7823 5.03023 84.5359 5.06028 84.2955 5.12037C84.0671 5.18047 83.8568 5.28264 83.6645 5.42687C83.4842 5.55909 83.3339 5.73338 83.2137 5.94973C83.1056 6.16608 83.0455 6.43052 83.0334 6.74303H86.9999C86.9999 6.40648 86.9458 6.13002 86.8377 5.91367C86.7295 5.69732 86.5852 5.52303 86.405 5.39082C86.2367 5.2586 86.0323 5.16845 85.792 5.12037C85.5516 5.06028 85.2991 5.03023 85.0347 5.03023Z" fill="#304659"/>
<path d="M90.6231 10.3489H91.6328C91.8852 9.97631 92.0655 9.46548 92.1737 8.81642C92.2819 8.15534 92.3359 7.25987 92.3359 6.13002V3.06501H100.179V10.3489H101.261V14.8743H98.9167V12.6206H92.967V14.8743H90.6231V10.3489ZM97.4022 10.3489V5.33673H94.8961V6.49061C94.8961 7.39209 94.848 8.15534 94.7519 8.78036C94.6678 9.40538 94.5355 9.92824 94.3552 10.3489H97.4022Z" fill="#304659"/>
<path d="M102.703 3.06501H105.407V8.83445L109.464 3.06501H111.898V12.6206H109.194V6.8512L105.137 12.6206H102.703V3.06501Z" fill="#304659"/>
<path d="M116.285 5.33673H113.347V3.06501H122.001V5.33673H119.062V12.6206H116.285V5.33673Z" fill="#304659"/>
<path fill-rule="evenodd" clip-rule="evenodd" d="M2.37333 0.688965H0.361301L4.20801 6.36739L-4.91902e-05 12.1719H2.28995L6.30679 6.36739L2.37333 0.688965Z" fill="#ABDA12"/>
</svg>
